<svg xmlns="http://www.w3.org/2000/svg" viewBox="0 0 32 32"><path fill="#564c43" d="M10.5 27h-.2c-.1-.1-.3-.2-.4-.4-.2-.2-.2-.5.1-.8.2-.3.6-.5.9-.7-.8-.7-1.2-1.5-1.4-2.5-.2-.7-.2-1.5-.2-2.3 0-1.2.2-2.3.2-3.5-.3.2-.6.4-1 .5h-.2c-.2-.2-.3-.4-.3-.6 0-.2.2-.4.3-.5.3-.2.6-.3 1-.3.2 0 .2-.1.2-.2-.1-1-.2-2-.2-3-.1-1-.1-2.1.1-3.1.1-.5.1-.5-.3-.6-.5-.3-.8-.9-.7-1.4.2-1.1 1.4-1.6 2.4-1.1.1.1.2.1.3 0 .5-.4 1-.7 1.6-.9 1.7-.6 3.5-.7 5.2-.4.9.1 1.8.4 2.5 1 .2.2.4.2.6.1.8-.4 1.7-.1 2.1.7.4.8.1 1.5-.8 1.9-.1.1-.1.1-.1.2.3 1 .4 2 .4 3.1 0 1.2 0 2.3.1 3.5 0 .2 0 .2.2.3.4 0 .7.2 1 .5.2.2.2.3 0 .6v.1c0 .2-.2.3-.4.3s-.4-.1-.5-.2c-.1 0-.2-.1-.3-.1v.1c0 .6.1 1.2.1 1.9 0 1.1 0 2.1-.2 3.2-.2 1-.6 2-1.3 2.8-.1.1-.1.2 0 .3.3.2.6.5.8.9.1.3 0 .5-.3.7-.2.2-.4.1-.6 0l-.4-.4c-.2-.2-.3-.4-.5-.5-.1-.1-.2-.1-.3 0-1.1.6-2.3.8-3.5.8-1.4.1-2.9-.1-4.2-.7h-.1c-.2.2-.6.3-.8.5-.3-.2-.6 0-.9.2zm7.8-17c.2 0 .5 0 .7-.1.8-.3 1.3-.9 1.4-1.7 0-.9-.5-1.6-1.2-1.9-.8-.3-1.9 0-2.5.6-.4.4-.6.9-.5 1.5.2 1 1 1.6 2.1 1.6zm-5.2-3.6h-.5c-1.2.2-1.9 1.3-1.5 2.5.3.9 1.2 1.4 2.2 1.3.7-.1 1.3-.4 1.7-1.1.5-1.1 0-2.7-1.9-2.7zm2.8 3c-.2 0-.4 0-.6.1-.3.2-.5.3-.4.7 0 .1-.1.1-.1.1-.2.1-.4.3-.4.6-.1.4.2.6.5.6.2 0 .4-.1.6-.2.3-.1.6-.1.9 0 .1.1.3.1.4.2.3.1.5 0 .6-.2.1-.2.1-.4-.1-.6-.1-.2-.3-.3-.5-.4-.1 0-.1-.1-.1-.2.1-.3 0-.5-.3-.6-.1-.1-.3-.1-.5-.1zm.8 2.7v-.5c0-.1 0-.1-.1-.1-.2-.1-.4-.1-.5-.2-.1 0-.1 0-.1.1 0 .3-.1.6 0 1 0 .2.2.4.4.3.2 0 .3-.2.3-.4v-.2zm-.9-.2v-.4c0-.1 0-.1-.1-.1-.2.1-.4.1-.6.2-.1 0-.1.1-.1.1 0 .3 0 .5.1.8.1.2.3.3.5.1.1-.1.2-.2.2-.4-.1-.1 0-.2 0-.3z"/></svg>
